<svg xmlns="http://www.w3.org/2000/svg" width="29.602" height="20" viewBox="0 0 29.602 20">
  <g id="Group_243" data-name="Group 243" transform="translate(51.404 5.055)">
    <g id="Icon_ionic-logo-game-controller-b" data-name="Icon ionic-logo-game-controller-b">
      <path id="Path_1" data-name="Path 1" d="M-45.154,1.729a1.2,1.2,0,0,0-1.182,1.206,1.2,1.2,0,0,0,1.17,1.219,1.2,1.2,0,0,0,1.182-1.206V2.942a1.191,1.191,0,0,0-1.168-1.213Z" fill="#fff"/>
      <path id="Path_2" data-name="Path 2" d="M-27.914,13.886a4.987,4.987,0,0,1-.559-.031,3.451,3.451,0,0,0,2.164,1.09,1.713,1.713,0,0,0,.758-.175A2.7,2.7,0,0,0-24.4,12.724,5.892,5.892,0,0,1-27.914,13.886ZM-30.447-4.8A5.316,5.316,0,0,0-32-5.055c-1.675,0-2.842.926-5.823.926s-4.149-.926-5.824-.926a5.316,5.316,0,0,0-1.556.257c-2.722.823-4.078,3.774-5.365,9.3s-1.047,9.522.469,10.272a1.716,1.716,0,0,0,.758.175c1.316,0,2.732-1.491,4.1-3.249,1.556-2.005,1.945-2.067,6.682-2.067h1.476c1.575,0,2.672,0,3.49.082a6.258,6.258,0,0,1-.339-2.046,6.183,6.183,0,0,1,4.118-5.882A1.334,1.334,0,0,1-29.6,1.7h.02a5.564,5.564,0,0,1,1.665-.247,5.589,5.589,0,0,1,2.154.422C-26.867-1.98-28.183-4.119-30.447-4.8ZM-42.773,2.945a2.429,2.429,0,0,1-2.373,2.468,2.426,2.426,0,0,1-2.423-2.447A2.429,2.429,0,0,1-45.2.467a2.432,2.432,0,0,1,2.423,2.447ZM-34.665,4.2a1.235,1.235,0,0,1-1.217-1.255,1.228,1.228,0,0,1,1.217-1.254,1.234,1.234,0,0,1,1.216,1.254A1.241,1.241,0,0,1-34.665,4.2ZM-32,1.454A1.242,1.242,0,0,1-33.229.2,1.236,1.236,0,0,1-32-1.055,1.235,1.235,0,0,1-30.786.2,1.241,1.241,0,0,1-32,1.454Z" fill="#fff"/>
    </g>
    <g id="Group_20" data-name="Group 20">
      <path id="Path_7" data-name="Path 7" d="M-25.7,2.14a5.766,5.766,0,0,0-2.164-.411,5.757,5.757,0,0,0-1.674.241h-.02a1.427,1.427,0,0,0-.22.08,6.038,6.038,0,0,0-4.139,5.732,5.968,5.968,0,0,0,.341,1.994,6.04,6.04,0,0,0,5.151,4.038,5.258,5.258,0,0,0,.561.03,6.047,6.047,0,0,0,3.527-1.132A6.058,6.058,0,0,0-21.8,7.782,6.027,6.027,0,0,0-25.7,2.14Zm1.493,9.49a5.256,5.256,0,0,1-3.657,1.463,5.427,5.427,0,0,1-1.513-.221,5.315,5.315,0,0,1-3.357-2.966,5.363,5.363,0,0,1-.441-2.124,4.566,4.566,0,0,1,.17-1.283,4.835,4.835,0,0,1,.862-1.854A5.34,5.34,0,0,1-30.53,3.192a5.221,5.221,0,0,1,2.245-.7c.14-.01.28-.02.421-.02a5.194,5.194,0,0,1,2.425.591,5.3,5.3,0,0,1,2.886,4.72A5.271,5.271,0,0,1-24.207,11.63Z" fill="none"/>
      <path id="Path_8" data-name="Path 8" d="M-22.553,7.782a5.271,5.271,0,0,1-1.654,3.848,5.256,5.256,0,0,1-3.657,1.463,5.427,5.427,0,0,1-1.513-.221,5.315,5.315,0,0,1-3.357-2.966,5.363,5.363,0,0,1-.441-2.124,4.566,4.566,0,0,1,.17-1.283,4.835,4.835,0,0,1,.862-1.854A5.34,5.34,0,0,1-30.53,3.192a5.221,5.221,0,0,1,2.245-.7c.14-.01.28-.02.421-.02a5.194,5.194,0,0,1,2.425.591A5.3,5.3,0,0,1-22.553,7.782Z" fill="#e5e1ba"/>
      <path id="Path_9" data-name="Path 9" d="M-22.553,7.782a5.271,5.271,0,0,1-1.654,3.848,5.256,5.256,0,0,1-3.657,1.463,5.427,5.427,0,0,1-1.513-.221,5.315,5.315,0,0,1-3.357-2.966,5.363,5.363,0,0,1-.441-2.124,4.566,4.566,0,0,1,.17-1.283,4.835,4.835,0,0,1,.862-1.854A5.34,5.34,0,0,1-30.53,3.192a5.221,5.221,0,0,1,2.245-.7c.14-.01.28-.02.421-.02a5.194,5.194,0,0,1,2.425.591A5.3,5.3,0,0,1-22.553,7.782Z" fill="#fff"/>
      <g id="Group_19" data-name="Group 19">
        <path id="Path_10" data-name="Path 10" d="M-26.312,9.736a1.782,1.782,0,0,1-.37.14,1.5,1.5,0,0,1-.411.05,2.641,2.641,0,0,1-.682-.12,2.55,2.55,0,0,0-.631-.12,1.2,1.2,0,0,0-.7.25l-.3-.691a1.525,1.525,0,0,0,.461-.491,1.053,1.053,0,0,0,.14-.491,1.008,1.008,0,0,0-.02-.161h-.581V7.471h.441a1.939,1.939,0,0,1-.12-.671,1.157,1.157,0,0,1,.17-.592,1.116,1.116,0,0,1,.481-.43,1.663,1.663,0,0,1,.671-.141,1.318,1.318,0,0,1,.892.281,1.264,1.264,0,0,1,.411.811l-.772.121a.754.754,0,0,0-.2-.441.483.483,0,0,0-.351-.14.5.5,0,0,0-.37.15.541.541,0,0,0-.151.391,1.446,1.446,0,0,0,.04.31,2.448,2.448,0,0,0,.1.351h.892V8.1h-.761a.491.491,0,0,1,.01.121,1.162,1.162,0,0,1-.08.42,3.183,3.183,0,0,1-.351.5.755.755,0,0,1,.391-.08,1.028,1.028,0,0,1,.18.01c.02,0,.1.02.231.05a2.3,2.3,0,0,0,.461.091,1.467,1.467,0,0,0,.581-.161Z" fill="#30ab65"/>
      </g>
    </g>
  </g>
</svg>
