<svg id="Icon_ionic-logo-game-controller-b" data-name="Icon ionic-logo-game-controller-b" xmlns="http://www.w3.org/2000/svg" width="27.235" height="19.445" viewBox="0 0 27.235 19.445">
  <path id="Path_1" data-name="Path 1" d="M9.315,14.386a1.179,1.179,0,1,0,1.173,1.179A1.175,1.175,0,0,0,9.315,14.386Z" transform="translate(-3.046 -7.791)" fill="#fff" opacity="0.5"/>
  <path id="Path_2" data-name="Path 2" d="M28.648,16.045C27.359,10.665,26,7.809,23.269,7a5.422,5.422,0,0,0-1.562-.243c-1.678,0-2.851.894-5.841.894s-4.164-.894-5.841-.894A5.362,5.362,0,0,0,8.462,7c-2.729.808-4.091,3.671-5.379,9.045s-1.052,9.263.468,9.987a1.773,1.773,0,0,0,.76.17c1.319,0,2.741-1.447,4.115-3.161,1.562-1.951,1.951-2.006,6.7-2.006h1.477c4.747,0,5.142.049,6.7,2.006,1.368,1.714,2.8,3.161,4.115,3.161a1.793,1.793,0,0,0,.76-.17C29.7,25.3,29.93,21.418,28.648,16.045Zm-20.126.894a2.407,2.407,0,1,1,2.383-2.407A2.4,2.4,0,0,1,8.522,16.938Zm10.51-1.185a1.222,1.222,0,1,1,1.222-1.222A1.222,1.222,0,0,1,19.032,15.753ZM21.7,18.421a1.219,1.219,0,1,1,1.222-1.216A1.221,1.221,0,0,1,21.7,18.421Zm0-5.337a1.222,1.222,0,1,1,1.222-1.222A1.222,1.222,0,0,1,21.7,13.085Zm2.668,2.668a1.222,1.222,0,1,1,1.222-1.222A1.222,1.222,0,0,1,24.369,15.753Z" transform="translate(-2.247 -6.757)" fill="#fff" opacity="0.5"/>
</svg>
